<svg xmlns:dc="http://purl.org/dc/elements/1.1/" xmlns:cc="http://creativecommons.org/ns#" xmlns:rdf="http://www.w3.org/1999/02/22-rdf-syntax-ns#" xmlns:svg="http://www.w3.org/2000/svg" xmlns="http://www.w3.org/2000/svg" xmlns:sodipodi="http://sodipodi.sourceforge.net/DTD/sodipodi-0.dtd" xmlns:inkscape="http://www.inkscape.org/namespaces/inkscape" version="1.1" x="0px" y="0px" viewBox="0 0 100 125"><g transform="translate(0,-952.36218)"><path style="text-indent:0;text-transform:none;direction:ltr;block-progression:tb;baseline-shift:baseline;color:#000000;enable-background:accumulate;" d="m 30.600146,963.37487 c -3.6281,0.038 -7.18857,0.8119 -10.40625,2.1875 -9.80628,4.1922 -16.7189004,14.4567 -13.2500005,26.74999 5.1069405,18.48434 27.6861105,36.37084 41.5937505,48.40624 0.9341,0.8357 1.88918,0.8305 2.875,0.062 22.38839,-19.2672 36.92522,-33.3558 41.65625,-48.43754 3.5921,-13.30499 -4.19762,-22.66569 -13.21875,-26.78119 -3.67753,-1.5722 -7.77466,-2.356 -11.9375,-2.1563 -6.30037,0.3021 -12.72784,2.8394 -17.90625,8.0938 -5.16217,-5.255 -11.54713,-7.7915 -17.84375,-8.0938 -0.52004,-0.025 -1.0442,-0.037 -1.5625,-0.031 z m 38.0625,8.3437 a 2.0002,2.0002 0 0 1 0.40625,0 c 8.50279,0.7855 14.31913,5.52 15.625,12.0625 1.30587,6.54239 -1.68393,14.33129 -8.96875,21.56253 a 2.0002,2.0002 0 1 1 -2.84375,-2.8125 c 6.65233,-6.60344 8.85434,-13.21883 7.90625,-17.96873 -0.94809,-4.7499 -4.809,-8.2021 -12.09375,-8.875 a 2.0002,2.0002 0 0 1 -0.0312,-3.9688 z" fill="#000000" fill-opacity="1" stroke="none" marker="none" visibility="visible" display="inline" overflow="visible"/></g></svg>