<svg
    xmlns="http://www.w3.org/2000/svg"
    xmlns:xlink="http://www.w3.org/1999/xlink" version="1.1" x="0px" y="0px" viewBox="0 0 64 60" style="enable-background:new 0 0 64 64" xml:space="preserve">
    <g>
        <rect x="31" y="22" width="2" height="2"/>
        <rect x="31" y="26" width="2" height="2"/>
        <rect x="31" y="30" width="2" height="2"/>
        <rect x="20" y="18" width="2" height="2"/>
        <rect x="24" y="18" width="2" height="2"/>
        <rect x="38" y="18" width="2" height="2"/>
        <rect x="42" y="18" width="2" height="2"/>
        <rect x="42" y="9" width="2" height="2"/>
        <rect x="20" y="9" width="2" height="2"/>
        <rect x="32" y="14" width="2" height="2"/>
        <path d="M54.442,48.019L41,45.188v-2.97c2.077-1.418,3.802-3.312,5.021-5.524L48.5,40H59v-2h-6l1.5-2H59v-2h-5.5l-3,4h-1   l-2.538-3.383c0.335-0.89,0.596-1.813,0.769-2.769L52,30.781V19.219l-4-1V16h4.382l2,4H59v-2h-3.382l-1-2H59v-2H38v-3h2V9h-4v5.764   L34.382,18h-4.764L28,14.764V9h-4v2h2v3h-8h-2H5v2h4.382l-1,2H5v2h4.618l2-4H16v2.219l-4,1v11.562l4.269,1.067   c0.173,0.956,0.434,1.88,0.769,2.769L14.5,38h-1l-3-4H5v2h4.5l1.5,2H5v2h10.5l2.479-3.306c1.219,2.212,2.944,4.106,5.021,5.524   v2.97l-13.442,2.83C6.337,48.697,4,51.578,4,54.868V63h56v-8.132C60,51.578,57.663,48.697,54.442,48.019z M57.923,54h-4.761   l-4.84-1.613l1.333-3.332l4.375,0.921C56.042,50.399,57.571,52.026,57.923,54z M12,55.721l4-1.334V61h-4V55.721z M16.332,48.636   l3.141-0.661l7.044,9.686c-0.75,0.946-1.258,2.089-1.438,3.339H18v-8.192L16.332,48.636z M32,57c2.414,0,4.434,1.721,4.899,4   h-9.798C27.566,58.721,29.586,57,32,57z M37.483,57.661l7.044-9.686l3.141,0.661L46,52.808V61h-7.08   C38.74,59.751,38.233,58.607,37.483,57.661z M48,54.387l4,1.334V61h-4V54.387z M39,45.5L37,47v-2.812   c0.69-0.228,1.355-0.508,2-0.823V45.5z M24.283,40.67L26.618,36h10.764l2.335,4.67C37.502,42.139,34.851,43,32,43   S26.498,42.139,24.283,40.67z M31,44.949V50l-2-1.5v-3.792C29.653,44.833,30.322,44.907,31,44.949z M33,44.949   c0.678-0.042,1.347-0.117,2-0.241V48.5L33,50V44.949z M50,20.781v8.438l-2.037,0.509C47.974,29.485,48,29.246,48,29v-8.719   L50,20.781z M14,29.219v-8.438l2-0.5V29c0,0.246,0.026,0.485,0.037,0.728L14,29.219z M18,29V16h8.382l2,4h7.236l2-4H46v13   c0,4.136-1.814,7.848-4.675,10.413l-2.253-4.506l2.077-6.922C42.733,27.906,44,26.603,44,25c0-1.654-1.346-3-3-3s-3,1.346-3,3   c0,0.991,0.489,1.865,1.232,2.411L37.256,34H26.744l-1.976-6.589C25.511,26.865,26,25.991,26,25c0-1.654-1.346-3-3-3s-3,1.346-3,3   c0,1.603,1.267,2.906,2.852,2.985l2.077,6.922l-2.253,4.506C19.814,36.848,18,33.136,18,29z M40,25c0-0.551,0.448-1,1-1   s1,0.449,1,1s-0.448,1-1,1S40,25.551,40,25z M22,25c0-0.551,0.448-1,1-1s1,0.449,1,1s-0.448,1-1,1S22,25.551,22,25z M27,44.189V47   l-2-1.5v-2.135C25.645,43.681,26.31,43.961,27,44.189z M23.763,47.072L32,53.25l8.237-6.178l2.146,0.452l-6.366,8.753   C34.879,55.475,33.495,55,32,55s-2.879,0.475-4.017,1.277l-6.366-8.753L23.763,47.072z M9.97,49.976l4.375-0.921l1.333,3.332   L10.838,54H6.077C6.429,52.026,7.958,50.399,9.97,49.976z M6,56h4v5H6V56z M54,61v-5h4v5H54z"/>
        <rect x="1" y="38" width="2" height="2"/>
        <rect x="1" y="34" width="2" height="2"/>
        <rect x="16" y="42" width="2" height="2"/>
        <rect x="1" y="42" width="13" height="2"/>
        <rect x="61" y="38" width="2" height="2"/>
        <rect x="61" y="34" width="2" height="2"/>
        <rect x="46" y="42" width="2" height="2"/>
        <rect x="50" y="42" width="13" height="2"/>
        <rect x="1" y="10" width="2" height="2"/>
        <rect x="1" y="14" width="2" height="2"/>
        <rect x="1" y="18" width="2" height="2"/>
        <path d="M18,10c0-3.519,2.614-6.432,6-6.92V7h6V5h-4V3h12v2h-6v7h2V7h6V3.08c3.386,0.488,6,3.401,6,6.92v2h13v-2H48   c0-4.962-4.037-9-9-9H25c-4.963,0-9,4.038-9,9H5v2h13V10z"/>
        <rect x="61" y="10" width="2" height="2"/>
        <rect x="61" y="14" width="2" height="2"/>
        <rect x="61" y="18" width="2" height="2"/>
    </g>
    <text x="0" y="79" fill="rgba(0,0,0,0)" font-size="5px" font-weight="bold" font-family="'Helvetica Neue', Helvetica, Arial-Unicode, Arial, Sans-serif">Created by Eucalyp</text>
    <text x="0" y="84" fill="rgba(0,0,0,0)" font-size="5px" font-weight="bold" font-family="'Helvetica Neue', Helvetica, Arial-Unicode, Arial, Sans-serif">from the Noun Project</text>
</svg>