<svg
    xmlns="http://www.w3.org/2000/svg"
    xmlns:xlink="http://www.w3.org/1999/xlink" version="1.1" x="0px" y="0px" viewBox="15 11 74 83" enable-background="new 0 0 100 100" xml:space="preserve">
    <path  d="M81.672,34.703c-1.638-5.632-5.479-11.338-10.536-15.649c-4.301-3.669-11.533-8.042-21.56-8.042  c-8.413,0-17.009,3.516-23.583,9.644c-6.645,6.194-10.455,14.351-10.455,22.38c0,7.512,2.377,14.963,6.871,21.541  c2.367,3.467,4.741,5.85,6.01,7.012v13.904c0,1.204,0.867,2.234,2.052,2.439l29.38,5.095c0.142,0.024,0.283,0.037,0.422,0.037  c0.58,0,1.146-0.203,1.596-0.581c0.56-0.471,0.883-1.165,0.883-1.895V78.143l14.653-0.879c1.315-0.078,2.341-1.174,2.329-2.495  l-0.147-16.096h5.821c0.781,0,1.518-0.369,1.984-0.996c0.469-0.625,0.612-1.433,0.391-2.183  C87.749,55.376,84.356,43.929,81.672,34.703z M69.786,36.741l-7.039,0.476l-11.732,0.793l7.575-17.239  C64.797,23.87,68.99,29.852,69.786,36.741z M49.43,18.606c2.517,0,4.976,0.457,7.321,1.355l-7.826,17.815L38.708,32.95l-7.363-3.477  C34.894,22.84,41.886,18.606,49.43,18.606z M28.911,39.126c0-2.7,0.528-5.33,1.573-7.837l17.271,8.157L34.719,53.399  C30.966,49.546,28.911,44.515,28.911,39.126z M49.43,59.644c-4.867,0-9.531-1.724-13.242-4.873l12.882-13.789l6.793,17.612  C53.766,59.292,51.606,59.644,49.43,59.644z M57.736,57.869l-6.88-17.834l19.084-1.289c0.006,0.127,0.01,0.251,0.01,0.381  C69.95,47.327,65.188,54.578,57.736,57.869z"/>
</svg>