<svg xmlns="http://www.w3.org/2000/svg" xmlns:xlink="http://www.w3.org/1999/xlink" viewBox="14 6 70 88" version="1.1" x="0px" y="0px">
	<g stroke="none" stroke-width="1" fill="none" fill-rule="evenodd">
		<g transform="translate(-1395.000000, -1636.000000)" fill="#000000">
			<g transform="translate(195.000000, 1186.000000)">
				<path d="M1250,528.971058 C1257.45902,528.971058 1264.40624,526.814491 1270.32693,523.148327 L1274.32543,537.034871 C1274.32543,540.88172 1263.43497,544 1250,544 C1236.56794,544 1225.67748,540.88172 1225.67748,537.034871 L1229.67307,523.148327 C1235.59376,526.817405 1242.54388,528.971058 1250,528.971058 Z M1250,523.142498 C1231.77265,523.142498 1217,508.337956 1217,490.071249 C1217,471.807457 1231.77265,457 1250,457 C1268.22735,457 1283,471.804542 1283,490.071249 C1283,508.335042 1268.22735,523.142498 1250,523.142498 Z M1223.95012,480.209326 C1223.91814,480.494925 1224.049,480.774696 1224.29036,480.932067 L1230.75775,485.10823 C1230.96422,485.242287 1231.09508,485.472515 1231.1009,485.720229 L1231.32772,493.425585 C1231.33645,493.714099 1231.50802,493.970556 1231.76683,494.090041 C1232.02564,494.209527 1232.33389,494.171641 1232.5549,493.988041 L1238.51921,489.121194 C1238.71114,488.963823 1238.96704,488.911366 1239.2055,488.981308 L1246.58601,491.146618 C1246.86517,491.228218 1247.16179,491.143704 1247.35663,490.930962 C1247.55146,490.718219 1247.60671,490.415134 1247.50493,490.14702 L1244.72779,482.960406 C1244.63765,482.727264 1244.66673,482.467893 1244.80922,482.260979 L1249.13923,475.893277 C1249.30208,475.65722 1249.31371,475.348307 1249.17413,475.097679 C1249.03164,474.847051 1248.7641,474.698422 1248.47621,474.712994 L1240.79618,475.138479 C1240.549,475.150136 1240.31054,475.039393 1240.15932,474.844136 L1235.45418,468.747463 C1235.27679,468.520149 1234.9918,468.409406 1234.70682,468.467692 C1234.42765,468.525977 1234.20083,468.735805 1234.12813,469.015576 L1232.16232,476.464476 C1232.09834,476.706361 1231.92096,476.898704 1231.68541,476.983218 L1224.44739,479.582756 C1224.17695,479.681841 1223.98502,479.923726 1223.95012,480.209326 Z" />
			</g>
		</g>
	</g>
</svg>
