<svg xmlns="http://www.w3.org/2000/svg" xmlns:xlink="http://www.w3.org/1999/xlink" version="1.1" x="0px" y="0px" viewBox="0 0 60 75" style="enable-background:new 0 0 60 60;" xml:space="preserve">
	<path d="M17.1100464,53.7600098h25.7699585c1.8500366,0,3.4500122-1.3900146,3.7000122-3.2199707l4.4700317-29.0900269H8.9500122  l4.460022,29.0700073C13.6600342,52.3699951,15.25,53.7600098,17.1100464,53.7600098z M38.9200439,26.0800171  c0.0299683-0.3800049,0.3599854-0.6799927,0.7399902-0.6799927h3.1900024c0.4500122,0,0.7999878,0.4099731,0.7399902,0.8599854  l-3.0300293,21.2200317c-0.0499878,0.3699951-0.3599854,0.6499634-0.7399902,0.6499634h-2.1399536  c-0.4400024,0-0.7800293-0.3800049-0.7400513-0.8200073L38.9200439,26.0800171z M28.4000244,25.4000244h3.1900024  c0.4299927,0,0.7600098,0.3499756,0.75,0.7700195l-0.5200195,21.2199707c-0.0100098,0.4100342-0.3399658,0.7399902-0.75,0.7399902  h-2.1499634c-0.4000244,0-0.7399902-0.3299561-0.75-0.7399902l-0.5200195-21.2199707  C27.6400146,25.75,27.9800415,25.4000244,28.4000244,25.4000244z M17.1500244,25.4000244h3.1799927  c0.3900146,0,0.710022,0.2999878,0.75,0.6799927l1.9799805,21.2299805c0.0400391,0.4400024-0.3099976,0.8200073-0.75,0.8200073  h-2.1399536c-0.3699951,0-0.6900024-0.2799683-0.7399902-0.6499634l-3.0200195-21.2200317  C16.3400269,25.8099976,16.6900024,25.4000244,17.1500244,25.4000244z" />
	<path d="M53,11.710022H38.8300171V9.3699951c0-1.7299805-1.4099731-3.1300049-3.1300049-3.1300049H24.3099976  c-1.7299805,0-3.1399536,1.4000244-3.1399536,3.1300049v2.3400269H7c-0.5499878,0-1,0.4500122-1,1v5.7399902  c0,0.5599976,0.4500122,1,1,1h46c0.5500488,0,1-0.4400024,1-1V12.710022C54,12.1600342,53.5500488,11.710022,53,11.710022z   M36.8300171,11.710022H23.1700439V9.3699951c0-0.6300049,0.5100098-1.1300049,1.1399536-1.1300049h11.3900146  c0.6199951,0,1.1300049,0.5,1.1300049,1.1300049V11.710022z" />
</svg>
