<svg
    xmlns:dc="http://purl.org/dc/elements/1.1/"
    xmlns:cc="http://creativecommons.org/ns#"
    xmlns:rdf="http://www.w3.org/1999/02/22-rdf-syntax-ns#"
    xmlns:svg="http://www.w3.org/2000/svg"
    xmlns="http://www.w3.org/2000/svg"
    xmlns:sodipodi="http://sodipodi.sourceforge.net/DTD/sodipodi-0.dtd"
    xmlns:inkscape="http://www.inkscape.org/namespaces/inkscape" viewBox="0 0 100 125" version="1.1" x="0px" y="0px">
    <g>
        <path style="opacity:1;fill-opacity:1;stroke:none;stroke-width:0.1;stroke-linecap:round;stroke-linejoin:round;stroke-miterlimit:4;stroke-dasharray:none;stroke-dashoffset:0;stroke-opacity:1" d="M 48.275391 4.9765625 C 22.959926 5.1175389 2.5387023 25.72923 2.6328125 51.044922 C 2.7265448 76.361105 23.300891 96.821023 48.617188 96.773438 C 59.665314 96.731486 70.327554 92.705808 78.646484 85.435547 L 48.757812 50.90625 L 48.757812 5.0078125 L 48.275391 4.9765625 z M 54.279297 5.0332031 L 54.279297 8.9667969 L 72.283203 8.9824219 A 43.490578 43.490578 0 0 0 54.279297 5.0332031 z M 54.279297 11.466797 L 54.279297 14.970703 L 81.935547 14.984375 A 43.490578 43.490578 0 0 0 76.970703 11.486328 L 76.599609 11.486328 L 54.279297 11.466797 z M 54.279297 17.470703 L 54.279297 20.970703 L 87.900391 20.982422 A 43.490578 43.490578 0 0 0 84.685547 17.486328 L 84.472656 17.486328 L 54.279297 17.470703 z M 54.279297 23.470703 L 54.279297 26.966797 L 91.994141 26.976562 A 43.490578 43.490578 0 0 0 89.771484 23.482422 L 89.0625 23.482422 L 54.279297 23.470703 z M 54.279297 29.466797 L 54.279297 32.960938 L 94.892578 32.972656 A 43.490578 43.490578 0 0 0 93.341797 29.476562 L 54.279297 29.466797 z M 54.279297 35.460938 L 54.279297 38.957031 L 96.65625 38.96875 A 43.490578 43.490578 0 0 0 95.707031 35.472656 L 54.279297 35.460938 z M 54.279297 41.457031 L 54.279297 44.953125 L 97.582031 44.964844 A 43.490578 43.490578 0 0 0 97.179688 41.46875 L 54.279297 41.457031 z M 54.279297 47.453125 L 54.279297 48.523438 L 56.378906 50.949219 L 97.675781 50.960938 A 43.490578 43.490578 0 0 0 97.708984 47.464844 L 54.279297 47.453125 z M 58.542969 53.449219 L 61.568359 56.945312 L 61.8125 56.945312 L 96.888672 56.960938 A 43.490578 43.490578 0 0 0 97.443359 53.460938 L 58.542969 53.449219 z M 63.734375 59.445312 L 66.761719 62.945312 L 67.820312 62.945312 L 95.291016 62.964844 A 43.490578 43.490578 0 0 0 96.349609 59.460938 L 63.734375 59.445312 z M 68.927734 65.445312 L 71.958984 68.949219 L 73.121094 68.951172 L 92.601562 68.972656 A 43.490578 43.490578 0 0 0 94.277344 65.464844 L 68.927734 65.445312 z M 74.126953 71.453125 L 77.164062 74.960938 L 88.761719 74.990234 A 43.490578 43.490578 0 0 0 91.193359 71.470703 L 74.126953 71.453125 z M 79.332031 77.466797 L 82.742188 81.40625 A 43.490578 43.490578 0 0 0 86.6875 77.484375 L 79.332031 77.466797 z "/>
    </g>
</svg>