<svg
    xmlns="http://www.w3.org/2000/svg" viewBox="0 34 100 32">
    <path d="M91.69,64.4a1.28,1.28,0,0,1-.59-.15l-7.94-4.17-7.94,4.17a1.28,1.28,0,0,1-1.85-1.35l1.52-8.84-6.42-6.26a1.28,1.28,0,0,1,.71-2.18L78,44.35l4-8a1.28,1.28,0,0,1,1.15-.71h0a1.28,1.28,0,0,1,1.15.71l4,8,8.87,1.29a1.28,1.28,0,0,1,.71,2.18l-6.42,6.26,1.52,8.84a1.28,1.28,0,0,1-1.26,1.49Zm-8.53-7a1.28,1.28,0,0,1,.59.15L90,60.79,88.8,53.84a1.28,1.28,0,0,1,.37-1.13l5-4.92-7-1a1.28,1.28,0,0,1-1-.7l-3.12-6.32L80,46.08a1.28,1.28,0,0,1-1,.7l-7,1,5,4.92a1.28,1.28,0,0,1,.37,1.13l-1.19,6.95,6.24-3.28A1.28,1.28,0,0,1,83.16,57.36ZM65,46.51a1.28,1.28,0,0,0-1-.87l-8.87-1.29-4-8a1.28,1.28,0,0,0-2.29,0l-4,8L36,45.64a1.28,1.28,0,0,0-.71,2.18l6.42,6.26-1.52,8.84a1.28,1.28,0,0,0,1.85,1.35L50,60.09l7.93,4.17a1.28,1.28,0,0,0,1.85-1.35l-1.52-8.84,6.42-6.26A1.28,1.28,0,0,0,65,46.51Zm-33.16,0a1.28,1.28,0,0,0-1-.87L22,44.35l-4-8a1.28,1.28,0,0,0-2.29,0l-4,8L2.86,45.64a1.28,1.28,0,0,0-.71,2.18l6.42,6.26L7.05,62.91a1.28,1.28,0,0,0,1.85,1.35l7.93-4.17,7.94,4.17a1.28,1.28,0,0,0,1.85-1.35l-1.52-8.84,6.42-6.26A1.28,1.28,0,0,0,31.86,46.51Z"/>
</svg>