<svg
    xmlns="http://www.w3.org/2000/svg" viewBox="0 0 18 22.5" x="0px" y="0px">
    <path  d="M9,0 C4.03,0 0,4.03 0,9 C0,13.971 4.03,18 9,18 C13.971,18 18,13.971 18,9 C18,4.03 13.971,0 9,0 M14.273,8.412 L11.544,10.306 L12.601,13.498 C12.762,13.986 12.208,14.393 11.795,14.092 L9.002,12.056 L6.208,14.065 C5.794,14.363 5.243,13.952 5.405,13.466 L6.46,10.305 L3.727,8.411 C3.304,8.116 3.512,7.473 4.026,7.473 L7.431,7.473 L8.503,4.173 C8.662,3.688 9.342,3.681 9.501,4.166 L10.573,7.473 L13.975,7.473 C14.489,7.473 14.697,8.117 14.273,8.412"/>
</svg>