<svg
    xmlns="http://www.w3.org/2000/svg"
    xmlns:xlink="http://www.w3.org/1999/xlink" version="1.1" x="0px" y="0px" viewBox="15 15 44 45" style="enable-background:new 0 0 69 69;" xml:space="preserve">
    <path d="M36.9,16.2c-11.6,0-21.1,9.4-21.1,21.1c0,11.6,9.4,21.1,21.1,21.1c11.6,0,21.1-9.4,21.1-21.1C57.9,25.7,48.5,16.2,36.9,16.2  z M52,34.2c-0.6,0-1-0.5-1-1v-1.5l-8.1,9.7c-0.2,0.2-0.5,0.4-0.8,0.4c-0.3,0-0.6-0.2-0.8-0.4L37.4,36l-3.7,7.7  c-0.1,0.3-0.4,0.5-0.8,0.5c-0.3,0-0.7-0.1-0.9-0.3l-3.9-4.3L23,45.9c-0.2,0.2-0.5,0.4-0.8,0.4c-0.2,0-0.5-0.1-0.6-0.2  c-0.4-0.4-0.5-1-0.1-1.4l5.9-7.2c0.2-0.2,0.5-0.4,0.7-0.4c0.3,0,0.6,0.1,0.8,0.3l3.6,4l3.8-7.9c0.2-0.3,0.5-0.5,0.8-0.6  c0.4,0,0.7,0.1,0.9,0.4l4.1,5.6l7.4-9.1h-1.7c-0.6,0-1-0.5-1-1s0.4-1,1-1h4c0.6,0,1.1,0.7,1.1,1.2v4C53,33.8,52.6,34.2,52,34.2z"/>
</svg>