<svg xmlns="http://www.w3.org/2000/svg" xmlns:xlink="http://www.w3.org/1999/xlink" version="1.1" x="0px" y="0px" viewBox="0 0 512 640" enable-background="new 0 0 512 512" xml:space="preserve"><g><path d="M462.21,302.307c0.08-0.183,0.156-0.366,0.229-0.551c15.57-39.633,22.448-78.382,20.441-115.169   c-2.012-36.891-12.807-69.938-32.084-98.223C412.208,31.747,343.029,0.566,256,0.566S99.792,31.747,61.205,88.364   c-19.277,28.285-30.072,61.332-32.084,98.223c-2.007,36.787,4.871,75.536,20.441,115.169c0.073,0.185,0.149,0.368,0.229,0.551   c4.806,11.01,3.707,24.281-3.36,40.571c-6.789,15.646-4.906,33.875,4.912,47.573c6.67,9.309,14.669,18.189,23.775,26.399   c14.074,12.686,33.785,16.555,51.442,10.098c5.281-1.932,14.832-4.698,19.471-1.51c2.532,1.738,8.47,8.613,8.913,34.844   c0.206,12.158,6.23,23.444,16.117,30.19c5.274,3.598,10.782,6.688,16.649,9.306c3.737,1.667,7.957-1.007,7.957-5.098v-25.012   c0-8.615,6.621-16.028,15.226-16.434c9.188-0.433,16.774,6.888,16.774,15.982v35.697c0,2.905,2.21,5.342,5.104,5.592   c0.397,0.034,0.796,0.068,1.196,0.1c3.254,0.264,6.033-2.332,6.033-5.596v-28.008c0-8.615,6.621-16.028,15.226-16.434   c9.188-0.433,16.774,6.888,16.774,15.982v28.459c0,3.289,2.818,5.858,6.096,5.591c0.038-0.003,0.075-0.006,0.113-0.009   c2.902-0.238,5.124-2.68,5.124-5.592v-35.331c0-8.615,6.621-16.028,15.226-16.434c9.188-0.433,16.774,6.888,16.774,15.982v25.897   c0,4.039,4.141,6.756,7.848,5.153c6.284-2.719,12.154-5.97,17.76-9.795c9.885-6.745,15.91-18.031,16.115-30.189   c0.443-26.23,6.381-33.105,8.913-34.844c4.64-3.186,14.191-0.422,19.471,1.51c17.657,6.458,37.368,2.59,51.443-10.099   c9.105-8.209,17.104-17.09,23.773-26.397c9.818-13.699,11.701-31.929,4.913-47.574C458.503,326.588,457.404,313.316,462.21,302.307   z M208.772,319.249c-18.169,10.803-40.558,18.193-58.429,19.287c-1.184,0.073-2.358,0.109-3.52,0.109   c-14.777,0-27.708-5.826-36.702-16.619c-11.894-14.274-15.742-35.944-10.292-57.969c8.243-33.316,36.409-52.425,77.276-52.425   c18.927,0,34.491,4.011,46.258,11.921c14.744,9.91,22.538,25.245,22.538,44.347C245.901,286.778,232.715,305.015,208.772,319.249z    M288.205,400.374c-4.628,7.488-12.646,11.959-21.45,11.959h-21.511c-8.803,0-16.822-4.471-21.45-11.959   s-5.041-16.659-1.104-24.533l10.755-21.511c4.299-8.598,12.941-13.938,22.554-13.938s18.255,5.341,22.554,13.938l10.755,21.511   C293.246,383.715,292.833,392.886,288.205,400.374z M401.878,322.026c-8.993,10.792-21.926,16.619-36.702,16.619   c-1.163,0-2.335-0.036-3.52-0.109c-17.871-1.094-40.259-8.484-58.429-19.287c-23.943-14.234-37.129-32.471-37.129-51.349   c0-19.102,7.793-34.437,22.538-44.347c11.768-7.91,27.331-11.921,46.258-11.921c40.867,0,69.033,19.108,77.276,52.425   C417.62,286.082,413.772,307.752,401.878,322.026z"/></g><text x="0" y="527" fill="#000000" font-size="5px" font-weight="bold" font-family="'Helvetica Neue', Helvetica, Arial-Unicode, Arial, Sans-serif">Created by iconfield</text><text x="0" y="532" fill="#000000" font-size="5px" font-weight="bold" font-family="'Helvetica Neue', Helvetica, Arial-Unicode, Arial, Sans-serif">from the Noun Project</text></svg>